# xmcd
#
# Track frame offsets:
# 150
# 18570
# 33075
# 49026
# 65835
# 82562
# 97601
# 115004
# 129528
# 145297
# 165261
# 180338
# 197966
# 219710
# 240943
# 266820
# 286322
#
# Disc length: 4052 seconds
#
# Revision: 0
# Processed by: cddbd v1.5PL3 Copyright (c) Steve Scherf et al.
# Submitted via: Audion 3.0.2 (http://www.panic.com/audion/)
#
DISCID=de0fd211
DTITLE=Mixed - Ljud CD #6
DYEAR=1900
DGENRE=
TTITLE0=Ballroom Blitz
TTITLE1=Born To Be Alive
TTITLE2=Daddy Cool
TTITLE3=Cavatina
TTITLE4=Das Boot
TTITLE5=I Will Survive
TTITLE6=I'm So Excited
TTITLE7=Lemon Tree
TTITLE8=Spirit In The Sky
TTITLE9=Pearly Spencer
TTITLE10=The Lion Sleeps Tonight
TTITLE11=The Riddle
TTITLE12=Yes Sir I Can Boogie
TTITLE13=The YMCA
TTITLE14=Radio Ga Ga
TTITLE15=I Want To Break Free
TTITLE16=Star Wars Theme
EXTD=
EXTT0=
EXTT1=
EXTT2=
EXTT3=
EXTT4=
EXTT5=
EXTT6=
EXTT7=
EXTT8=
EXTT9=
EXTT10=
EXTT11=
EXTT12=
EXTT13=
EXTT14=
EXTT15=
EXTT16=
PLAYORDER=
